<svg xmlns="http://www.w3.org/2000/svg" xmlns:xlink="http://www.w3.org/1999/xlink" viewBox="0 0 261 209"><defs><style>.cls-1{fill:none;}.cls-2{fill:#e76d5d;}.cls-3{fill:url(#New_Pattern_Swatch_4);}.cls-4{fill:#353535;}</style><pattern id="New_Pattern_Swatch_4" data-name="New Pattern Swatch 4" width="120" height="120" patternTransform="translate(-45.43 139.99) rotate(45) scale(0.75)" patternUnits="userSpaceOnUse" viewBox="0 0 120 120"><rect class="cls-1" width="120" height="120"/><rect class="cls-2" y="2" width="120" height="4"/><rect class="cls-2" y="10" width="120" height="4"/><rect class="cls-2" y="18" width="120" height="4"/><rect class="cls-2" y="26" width="120" height="4"/><rect class="cls-2" y="34" width="120" height="4"/><rect class="cls-2" y="42" width="120" height="4"/><rect class="cls-2" y="50" width="120" height="4"/><rect class="cls-2" y="58" width="120" height="4"/><rect class="cls-2" y="66" width="120" height="4"/><rect class="cls-2" y="74" width="120" height="4"/><rect class="cls-2" y="82" width="120" height="4"/><rect class="cls-2" y="90" width="120" height="4"/><rect class="cls-2" y="98" width="120" height="4"/><rect class="cls-2" y="106" width="120" height="4"/><rect class="cls-2" y="114" width="120" height="4"/></pattern></defs><title>fiets</title><g id="Layer_2" data-name="Layer 2"><g id="Layer_1-2" data-name="Layer 1"><path class="cls-3" d="M158.85,183l11.66-64.49-10.88-9.69L133.68,120a58.58,58.58,0,0,1-2.41,26.9l15,36.13Z"/><path class="cls-3" d="M40.88,163.91l-1.42-3.42-1.31.57Q39.46,162.55,40.88,163.91Z"/><path class="cls-3" d="M34.76,99.81,82.53,79.26A49.53,49.53,0,0,0,34.76,99.81Z"/><path class="cls-3" d="M25.72,128.29a49.28,49.28,0,0,0,8.05,27l3-1.29-11-26.63C25.74,127.7,25.72,128,25.72,128.29Z"/><polygon class="cls-3" points="173.32 102.93 169.2 104.7 172.48 107.62 173.32 102.93"/><path class="cls-4" d="M97.32,183h41.35l-11.25-27.14A59.39,59.39,0,0,1,97.32,183Z"/><path class="cls-3" d="M123.47,116.75a49.58,49.58,0,0,0-15.24-25.44l11.26,27.15Z"/><path class="cls-3" d="M124.84,128.29c0-1.49-.08-3-.21-4.42l-2.46,1.06,2.58,6.22C124.81,130.2,124.84,129.25,124.84,128.29Z"/><path class="cls-3" d="M132.25,113l21.62-9.3L114.55,68.61l-6.17,10.87A59.14,59.14,0,0,1,132.25,113Z"/><path class="cls-3" d="M47.73,180.44A59.47,59.47,0,0,1,29.1,165L0,177.46V183H48.79Z"/><polygon class="cls-3" points="261 145.99 261 133.01 248.02 133.01 261 145.99"/><polygon class="cls-3" points="161.27 209 185 209 185 190 164.7 190 161.27 209"/><path class="cls-3" d="M261,69.3V65.22L247.49,71A59,59,0,0,1,261,69.3Z"/><path class="cls-3" d="M212.39,123.57h16.29L215.51,110.4A49.38,49.38,0,0,0,212.39,123.57Z"/><path class="cls-4" d="M218.72,103.7l19.86,19.87H261V78.74A49.57,49.57,0,0,0,218.72,103.7Z"/><path class="cls-3" d="M207.63,92.62l4.21,4.21a59.48,59.48,0,0,1,18.27-18.32l-19.57,8.41Z"/><path class="cls-3" d="M113.06,121.22l-12-28.88L79.39,130.61,71.17,126,95.5,83.06c-.68-.31-1.36-.6-2-.87L29.32,109.77c-.57,1.41-1.08,2.85-1.52,4.32l15.41,37.17Z"/><path class="cls-3" d="M157.45,19.12,149,10.68,86,37.76l14.85,35.81c8.46-14.91,16.34-28.77,19.86-34.95C130,22.49,134.5,18.21,157.45,19.12Z"/><path class="cls-3" d="M75.28,177.85a49.63,49.63,0,0,0,47.09-34.15l-6.63-16-69.85,30,5.88,14.18A49.35,49.35,0,0,0,75.28,177.85Z"/><path class="cls-3" d="M261,155.89,238.12,133H212.39A49.62,49.62,0,0,0,261,177.83Z"/><polygon class="cls-3" points="191.26 43.03 211.84 63.61 220.97 45.69 202.72 45.69 202.72 36.25 252.28 36.25 252.28 45.69 231.57 45.69 218.85 70.62 222.42 74.19 261 57.6 261 0 199.04 0 191.26 43.03"/><polygon class="cls-3" points="154.15 209 157.59 190 59.27 190 67.15 209 154.15 209"/><path class="cls-3" d="M202.93,133H186.76l-10.13-9L166,183h73.71A59.1,59.1,0,0,1,202.93,133Z"/><polygon class="cls-4" points="76.92 34.06 62.8 0 0 0 0 67.14 76.92 34.06"/><rect class="cls-3" x="192" y="190" width="69" height="19"/><polygon class="cls-4" points="51.7 190 0 190 0 209 59.57 209 51.7 190"/><polygon class="cls-3" points="196.97 92.76 181.04 99.61 178.6 113.08 184.1 117.98 196.97 92.76"/><path class="cls-3" d="M208.33,103.21l-4-4-12.44,24.39h11.08A58.33,58.33,0,0,1,208.33,103.21Z"/><polygon class="cls-4" points="173.84 0 155.93 7.7 185.24 37.01 191.93 0 173.84 0"/><polygon class="cls-3" points="182.53 91.35 201.94 83 208.49 70.16 189.75 51.42 182.53 91.35"/><path class="cls-3" d="M183.72,45.39,167,28.67l0,.48c-28.67-2.2-29.56-.65-38,14.16-2,3.53-5.46,9.58-9.62,16.91l44.12,39.34,11.38-4.89Z"/><polygon class="cls-3" points="83.35 31.3 143.68 5.35 138.33 0 70.38 0 83.35 31.3"/><polygon class="cls-3" points="150.6 2.38 156.13 0 148.23 0 150.6 2.38"/><path class="cls-3" d="M22.65,101.67A59,59,0,0,1,92.6,71.89l-13-31.36-69.84,30Z"/><path class="cls-3" d="M0,74.76v95.08L25,159.1a58.93,58.93,0,0,1-6.09-48.21L3.33,73.33Z"/></g></g></svg>