<svg xmlns="http://www.w3.org/2000/svg" viewBox="0 0 32.71 32.71"><defs><style>.cls-1{fill:#f9f9f9;}.cls-2{fill:#e6b6b1;}</style></defs><title>instagram</title><g id="Layer_2" data-name="Layer 2"><g id="Layer_1-2" data-name="Layer 1"><circle class="cls-1" cx="16.36" cy="16.36" r="16.36"/><path class="cls-2" d="M16.34,11.83a4.58,4.58,0,1,0,4.57,4.58A4.58,4.58,0,0,0,16.34,11.83Zm0,7.45a2.9,2.9,0,1,1,2.9-2.89A2.9,2.9,0,0,1,16.36,19.28Z"/><circle class="cls-2" cx="21.06" cy="11.67" r="1.07"/><path class="cls-2" d="M20.07,7.51H12.64a5.15,5.15,0,0,0-5.13,5.13v7.43a5.15,5.15,0,0,0,5.13,5.13h7.43a5.15,5.15,0,0,0,5.13-5.13V12.64A5.15,5.15,0,0,0,20.07,7.51Zm3.42,12.76a3.3,3.3,0,0,1-3.3,3.29H12.46a3.3,3.3,0,0,1-3.3-3.29V12.53a3.31,3.31,0,0,1,3.3-3.3h7.73a3.31,3.31,0,0,1,3.3,3.3Z"/></g></g></svg>