<svg xmlns="http://www.w3.org/2000/svg" xmlns:xlink="http://www.w3.org/1999/xlink" viewBox="0 0 165.16 289.97"><defs><style>.cls-1{fill:none;}.cls-2{fill:#e86d5d;}.cls-3{fill:url(#New_Pattern_Swatch_2);}.cls-4{fill:url(#New_Pattern_Swatch_2-13);}.cls-5{fill:#353535;}</style><pattern id="New_Pattern_Swatch_2" data-name="New Pattern Swatch 2" width="120" height="120" patternTransform="translate(716.89 17.31) rotate(45) scale(0.29)" patternUnits="userSpaceOnUse" viewBox="0 0 120 120"><rect class="cls-1" width="120" height="120"/><rect class="cls-2" y="2" width="120" height="4"/><rect class="cls-2" y="10" width="120" height="4"/><rect class="cls-2" y="18" width="120" height="4"/><rect class="cls-2" y="26" width="120" height="4"/><rect class="cls-2" y="34" width="120" height="4"/><rect class="cls-2" y="42" width="120" height="4"/><rect class="cls-2" y="50" width="120" height="4"/><rect class="cls-2" y="58" width="120" height="4"/><rect class="cls-2" y="66" width="120" height="4"/><rect class="cls-2" y="74" width="120" height="4"/><rect class="cls-2" y="82" width="120" height="4"/><rect class="cls-2" y="90" width="120" height="4"/><rect class="cls-2" y="98" width="120" height="4"/><rect class="cls-2" y="106" width="120" height="4"/><rect class="cls-2" y="114" width="120" height="4"/></pattern><pattern id="New_Pattern_Swatch_2-13" data-name="New Pattern Swatch 2" width="120" height="120" patternTransform="translate(725.5 12.58) rotate(45) scale(0.29)" patternUnits="userSpaceOnUse" viewBox="0 0 120 120"><rect class="cls-1" width="120" height="120"/><rect class="cls-2" y="2" width="120" height="4"/><rect class="cls-2" y="10" width="120" height="4"/><rect class="cls-2" y="18" width="120" height="4"/><rect class="cls-2" y="26" width="120" height="4"/><rect class="cls-2" y="34" width="120" height="4"/><rect class="cls-2" y="42" width="120" height="4"/><rect class="cls-2" y="50" width="120" height="4"/><rect class="cls-2" y="58" width="120" height="4"/><rect class="cls-2" y="66" width="120" height="4"/><rect class="cls-2" y="74" width="120" height="4"/><rect class="cls-2" y="82" width="120" height="4"/><rect class="cls-2" y="90" width="120" height="4"/><rect class="cls-2" y="98" width="120" height="4"/><rect class="cls-2" y="106" width="120" height="4"/><rect class="cls-2" y="114" width="120" height="4"/></pattern></defs><title>power-hand</title><g id="Layer_2" data-name="Layer 2"><g id="Layer_1-2" data-name="Layer 1"><path class="cls-3" d="M64.45,200.94a88.9,88.9,0,0,0,20.7-30.32H64.45Z"/><path class="cls-3" d="M60.8,204.31l.9-.81V170.62H48.23C53.37,179.2,57.81,188.67,60.8,204.31Z"/><path class="cls-3" d="M57.71,76.47,45.63,71.13,28.33,97.71v19.51H61.7V99.33c-2.72.11-6.4-.17-11.05-.17H46.72s3.93-8.63,8.64-18.06C56.26,79.3,57,77.77,57.71,76.47Z"/><path class="cls-3" d="M88,128.61H64.45v39.26H86.2c4.86-13.4,5.33-25.89,3.32-34.55A31.6,31.6,0,0,0,88,128.61Z"/><path class="cls-3" d="M46.54,167.87H61.7V143.14H30.41c2.73,3.71,5.34,7.51,7.67,11.38C41,159.35,43.85,163.57,46.54,167.87Z"/><path class="cls-3" d="M64.45,99h0v26.86H86.71C80.81,114.1,68.81,102.86,64.45,99Z"/><path class="cls-4" d="M25.58,117.22V97.08h0l0,0v-.23h.15L43.16,70,27.89,63.27c-5.51,7.64-11.66,15.67-14.15,18.62C9.42,87,0,101.13,0,101.13c1.78,4.79,5.42,10.2,9.94,16.09Z"/><path class="cls-5" d="M28.35,140.39H61.7V120H12.08C17.08,126.31,22.88,133.17,28.35,140.39Z"/><path class="cls-3" d="M52.22,96S62,72.47,64.39,72.47a15,15,0,0,1,2.29.32C66.18,75.38,62.76,93,62,94.06S61.64,96.41,52.22,96Z"/><path class="cls-3" d="M77,57.29,95.94,61a71.45,71.45,0,0,0,3-6.56c1.57-3.92,2.36-7.45,1.57-8.63S95.41,43.41,84,39.88c-2.32-.72-4.69-1.44-7-2.12Z"/><path class="cls-3" d="M56.71,60l17.56-2.35V37C66.33,34.68,59.51,33,58.11,33.6c-1.6.63-6.81,7.22-10.19,11.14Z"/><path class="cls-3" d="M76.66,60.05,58.19,62.52l4.09,7.09a4.73,4.73,0,0,1,1.32-.68c2.36-.78,16.89,4.32,22.78,2.75,3.05-.81,5.89-4.37,8.14-8.16Z"/><path class="cls-3" d="M46.05,46.83l-.11.12c-2,2-11,10-15.69,14.09L59.13,73.83c.47-.85.89-1.54,1.28-2.12Z"/><path class="cls-3" d="M129.81,43.86l-13.93,1.25c-1.32,5.16-3.15,12.21-5,18.76l16.58,3.22Z"/><path class="cls-3" d="M129.88,95.75H127.4l-.57,5.7C127.87,99.56,128.91,97.62,129.88,95.75Z"/><path class="cls-3" d="M139.76,72.31l-9.83-1.91L127.67,93h3.6c.88-1.77,1.64-3.42,2.22-4.83C135.16,84.08,137.63,77.8,139.76,72.31Z"/><path class="cls-5" d="M127.22,69.87l-17.06-3.31c-1.06,3.73-2.09,7.17-3,9.83-2,6-4,11.86-5.88,16.61h23.61Z"/><path class="cls-3" d="M130.2,67.62l10.58,2c1.89-4.88,3.31-8.59,3.31-8.59,2.48-7.18,5.54-13.77,3.6-18.82L132.6,43.61Z"/><path class="cls-3" d="M124.63,95.75H100.16a25.69,25.69,0,0,1-3.87,6.84c4.61,4.43,12.86,8.74,23.22,11.63.47-.79,2-3.4,4-6.79Z"/><path class="cls-3" d="M130.09,41.07l.89-8.93c-6.21-1.72-11.45-1.11-13.2,5.38,0,0-.45,1.84-1.19,4.76Z"/><path class="cls-3" d="M132.88,40.82l13.21-1.18a12.91,12.91,0,0,0-4-2.9A79.91,79.91,0,0,0,133.66,33Z"/><path class="cls-3" d="M164.44,77.1,143.21,73c-1.79,4.78-4,10.18-6.19,14.8-.83,1.72-1.68,3.48-2.53,5.22h21.15c3.36-5.46,6.77-10.44,9.52-13.3A14.29,14.29,0,0,0,164.44,77.1Z"/><path class="cls-3" d="M139.53,95.75l4.92,17.6c2.2-4.54,5.75-11.21,9.54-17.6Z"/><path class="cls-3" d="M162.8,74c-4-6-11.62-9.93-15.8-11.73-.6,1.79-1.58,4.7-2.82,8.11Z"/><path class="cls-3" d="M136.68,95.75h-3.54c-4.18,8.48-8.24,16.4-10.41,19.93a36.75,36.75,0,0,0,16.11,7,25.76,25.76,0,0,0,3.78-5.71Z"/><path class="cls-3" d="M163,93a73.48,73.48,0,0,0,1.92-7.37A47.07,47.07,0,0,0,159.56,93Z"/><path class="cls-3" d="M147.08,116c-2.2,4.45-3.45,7-4.14,8.51l7.11,3c1.28-3.24,2.56-6.46,3.8-9.62Z"/><path class="cls-3" d="M162.07,95.75h-4.18c-3,5-6.21,11-9.09,16.76l-.47.94,6.53,1.8C157.64,108.15,160.18,101.46,162.07,95.75Z"/><path class="cls-3" d="M88.73,37.55c5,1.56,12.22,4.13,14.53,5.86l.06.06L112,42.7l1.89-7.14c.78-2.34-.77-7-9.62-10.9Z"/><path class="cls-3" d="M98,64.19c-2.73,5.11-6.59,10.39-12,11l-.72.07v26.54a27.37,27.37,0,0,0,8.18-1.09c4.71-8.24,9.82-25.91,11.39-31.41.22-.78.57-2,1-3.6Z"/><path class="cls-3" d="M99.29,61.61,106.55,63c1.37-5.07,3.19-11.91,4.67-17.5l-6.81.61c.17,3.8-2.6,10.08-4.69,14.56C99.58,61,99.44,61.3,99.29,61.61Z"/><path class="cls-3" d="M82.51,101.62V75.29a87.26,87.26,0,0,1-12.38-1.82c-.52,2.22-2.32,10-3,14.7-.57,4,.29,6.68-.06,8.49C73.39,99.61,78.3,101.11,82.51,101.62Z"/><path class="cls-3" d="M85.54,36.62l15.9-13.21c-7.59-3.39-14-6.48-17.06-3.91-1.57,2.05-4.29,11.37-5.07,15.27-.19,0,4.13,1.36,5.1,1.57Z"/><path class="cls-3" d="M52.68.61a4.9,4.9,0,0,0-1.25.79C47.51,4.94,44,14.75,41.22,28.88S37.3,49.3,37.3,49.3c-.11.19,3.64-3.25,5.89-5.5C51,36,53.93,31.77,56.34,30.12Z"/><path class="cls-5" d="M71.85,4.54C67.41,2.47,60.29-.27,55.37,0L59,29.28c2.23.07,9.47,2.25,15.75,4.19,2-6.6,4.56-14.79,4.56-14.79C81.66,9.25,77.74,7.29,71.85,4.54Z"/><path class="cls-3" d="M97,252.68l5.57-30.83L62.39,239.12c0,4.36,0,8.94,0,13.56Z"/><path class="cls-3" d="M71.63,200.22a116.6,116.6,0,0,1-9.9,9.48c.44,2.78.6,13.36.65,26.43l20.48-8.81Z"/><path class="cls-3" d="M107.34,195.36l4.47-24.74H90c-.4,1.16-.83,2.34-1.28,3.53-.23.63-.48,1.24-.74,1.86Z"/><path class="cls-3" d="M106.74,198.65l-19.95-20A86.23,86.23,0,0,1,73.67,198l11.72,28.27,17.75-7.64Z"/><path class="cls-5" d="M116.17,146.51l-10.46-23.86-12.95,5.57c3.93,10.91,3.4,23.56-1.82,39.65h21.37Z"/><polygon class="cls-3" points="93.03 289.98 107.25 289.98 107.25 255.42 99.28 255.42 93.03 289.98"/><path class="cls-3" d="M109.7,197.72l12.63,12.63,11.56-5c0-14.55.46-27.13,1.56-34,0-.25.09-.52.14-.78h-21Z"/><polygon class="cls-3" points="109.11 201.01 106.17 217.3 119.61 211.52 109.11 201.01"/><path class="cls-5" d="M110,255.42V290h26.12c-.25-5.5-.83-18.7-1.33-34.55Z"/><path class="cls-3" d="M115.1,167.87h21a162.92,162.92,0,0,1,5.57-18.44l-22.91-2Z"/><path class="cls-3" d="M91.48,125.08c.09.19.17.39.26.59l20.3-8.73c-8-3.72-15.37-7.51-20.17-10.71-4.32,2-9.81.79-14.13,0C77.74,106.23,85.59,112.12,91.48,125.08Z"/><path class="cls-3" d="M92.08,279.77H62.34c0,3.73,0,7.18,0,10.2h27.9Z"/><path class="cls-3" d="M108.23,121.57l10.1,23,24.34,2.18c1.74-4.81,3.66-9.8,5.61-14.82-6.73-2.38-20.2-7.71-32.87-13.46Z"/><path class="cls-3" d="M111.46,218l22.91,22.9c-.27-10.82-.47-22.11-.48-32.55Z"/><path class="cls-3" d="M96.48,255.42H62.39c0,7.44,0,14.89,0,21.6H92.58Z"/><path class="cls-3" d="M134.47,244.91l-25.73-25.73-3.16,1.36-5.81,32.14h34.92C134.62,250.14,134.54,247.55,134.47,244.91Z"/></g></g></svg>