<svg xmlns="http://www.w3.org/2000/svg" xmlns:xlink="http://www.w3.org/1999/xlink" viewBox="0 0 436 114.36"><defs><style>.cls-1{fill:none;}.cls-2{fill:#e76d5d;}.cls-3{fill:url(#New_Pattern_Swatch_4);}.cls-4{fill:url(#New_Pattern_Swatch_4-3);}.cls-5{fill:url(#New_Pattern_Swatch_4-5);}.cls-6{fill:#f9f9f9;}.cls-7{fill:#e66e61;}</style><pattern id="New_Pattern_Swatch_4" data-name="New Pattern Swatch 4" width="120" height="120" patternTransform="translate(-212.8 130.91) rotate(45) scale(1.1)" patternUnits="userSpaceOnUse" viewBox="0 0 120 120"><rect class="cls-1" width="120" height="120"/><rect class="cls-2" y="2" width="120" height="4"/><rect class="cls-2" y="10" width="120" height="4"/><rect class="cls-2" y="18" width="120" height="4"/><rect class="cls-2" y="26" width="120" height="4"/><rect class="cls-2" y="34" width="120" height="4"/><rect class="cls-2" y="42" width="120" height="4"/><rect class="cls-2" y="50" width="120" height="4"/><rect class="cls-2" y="58" width="120" height="4"/><rect class="cls-2" y="66" width="120" height="4"/><rect class="cls-2" y="74" width="120" height="4"/><rect class="cls-2" y="82" width="120" height="4"/><rect class="cls-2" y="90" width="120" height="4"/><rect class="cls-2" y="98" width="120" height="4"/><rect class="cls-2" y="106" width="120" height="4"/><rect class="cls-2" y="114" width="120" height="4"/></pattern><pattern id="New_Pattern_Swatch_4-3" data-name="New Pattern Swatch 4" width="120" height="120" patternTransform="translate(-176.76 130.91) rotate(45) scale(1.1)" patternUnits="userSpaceOnUse" viewBox="0 0 120 120"><rect class="cls-1" width="120" height="120"/><rect class="cls-2" y="2" width="120" height="4"/><rect class="cls-2" y="10" width="120" height="4"/><rect class="cls-2" y="18" width="120" height="4"/><rect class="cls-2" y="26" width="120" height="4"/><rect class="cls-2" y="34" width="120" height="4"/><rect class="cls-2" y="42" width="120" height="4"/><rect class="cls-2" y="50" width="120" height="4"/><rect class="cls-2" y="58" width="120" height="4"/><rect class="cls-2" y="66" width="120" height="4"/><rect class="cls-2" y="74" width="120" height="4"/><rect class="cls-2" y="82" width="120" height="4"/><rect class="cls-2" y="90" width="120" height="4"/><rect class="cls-2" y="98" width="120" height="4"/><rect class="cls-2" y="106" width="120" height="4"/><rect class="cls-2" y="114" width="120" height="4"/></pattern><pattern id="New_Pattern_Swatch_4-5" data-name="New Pattern Swatch 4" width="120" height="120" patternTransform="translate(-140.73 130.91) rotate(45) scale(1.1)" patternUnits="userSpaceOnUse" viewBox="0 0 120 120"><rect class="cls-1" width="120" height="120"/><rect class="cls-2" y="2" width="120" height="4"/><rect class="cls-2" y="10" width="120" height="4"/><rect class="cls-2" y="18" width="120" height="4"/><rect class="cls-2" y="26" width="120" height="4"/><rect class="cls-2" y="34" width="120" height="4"/><rect class="cls-2" y="42" width="120" height="4"/><rect class="cls-2" y="50" width="120" height="4"/><rect class="cls-2" y="58" width="120" height="4"/><rect class="cls-2" y="66" width="120" height="4"/><rect class="cls-2" y="74" width="120" height="4"/><rect class="cls-2" y="82" width="120" height="4"/><rect class="cls-2" y="90" width="120" height="4"/><rect class="cls-2" y="98" width="120" height="4"/><rect class="cls-2" y="106" width="120" height="4"/><rect class="cls-2" y="114" width="120" height="4"/></pattern></defs><title>stats-wide</title><g id="Layer_2" data-name="Layer 2"><g id="Layer_1-2" data-name="Layer 1"><rect class="cls-3" y="7.34" width="109.53" height="107.02"/><rect class="cls-4" x="159.3" y="7.34" width="109.53" height="107.02"/><rect class="cls-5" x="318.6" y="7.34" width="109.53" height="107.02"/><rect class="cls-6" x="7.34" width="109.53" height="107.02"/><path class="cls-7" d="M55.14,56.57l7.3-21.65H53.58V28.5h18v1l-9.5,27Z"/><path class="cls-7" d="M43.24,67.53H46V80H43.24v-.86a2.82,2.82,0,0,1-2.36,1.1A3.77,3.77,0,0,1,39.33,80a3.7,3.7,0,0,1-1.23-.88,3.89,3.89,0,0,1-.82-1.3,4.41,4.41,0,0,1-.3-1.63,4.55,4.55,0,0,1,.28-1.57,4,4,0,0,1,.79-1.3,3.67,3.67,0,0,1,1.23-.89,3.86,3.86,0,0,1,1.57-.32,3.13,3.13,0,0,1,2.39,1Zm-3.43,8.61a1.82,1.82,0,0,0,.14.7,1.66,1.66,0,0,0,.37.56,1.64,1.64,0,0,0,.55.38,1.82,1.82,0,0,0,.7.14,1.77,1.77,0,0,0,.69-.14,1.68,1.68,0,0,0,.56-.38,1.9,1.9,0,0,0,.37-.55,1.72,1.72,0,0,0,0-1.36,1.87,1.87,0,0,0-.37-.57,1.68,1.68,0,0,0-.56-.38,1.87,1.87,0,0,0-1.37,0,1.68,1.68,0,0,0-.56.38,1.9,1.9,0,0,0-.37.55A1.53,1.53,0,0,0,39.81,76.14Z"/><path class="cls-7" d="M53.79,72.3h2.74V80H53.79v-.86a2.84,2.84,0,0,1-2.36,1.1A3.77,3.77,0,0,1,49.88,80a3.65,3.65,0,0,1-1.23-.86,3.93,3.93,0,0,1-.82-1.31,4.39,4.39,0,0,1-.3-1.64,4.33,4.33,0,0,1,.29-1.57,4,4,0,0,1,.8-1.3,3.63,3.63,0,0,1,1.22-.89,3.78,3.78,0,0,1,1.56-.32,3.15,3.15,0,0,1,2.39,1Zm-3.43,3.84a1.82,1.82,0,0,0,.14.7,1.66,1.66,0,0,0,.37.56,1.64,1.64,0,0,0,.55.38,1.8,1.8,0,0,0,1.39,0,1.79,1.79,0,0,0,.56-.38,1.9,1.9,0,0,0,.37-.55,1.72,1.72,0,0,0,0-1.36,1.87,1.87,0,0,0-.37-.57,1.69,1.69,0,0,0-1.25-.51,1.82,1.82,0,0,0-.7.13,1.64,1.64,0,0,0-.55.38,1.72,1.72,0,0,0-.37.55A1.67,1.67,0,0,0,50.36,76.14Z"/><path class="cls-7" d="M67,72.3v7.2A8,8,0,0,1,67,80.65a4.9,4.9,0,0,1-.21.91,2.71,2.71,0,0,1-.57.92,3.59,3.59,0,0,1-.92.75,4.86,4.86,0,0,1-1.23.49,5.41,5.41,0,0,1-1.48.19,5.79,5.79,0,0,1-1.66-.23,4.31,4.31,0,0,1-1.31-.63,3.43,3.43,0,0,1-.93-.93A3,3,0,0,1,58.16,81h3.07a1.22,1.22,0,0,0,1.29.76,1.75,1.75,0,0,0,1.32-.48,1.85,1.85,0,0,0,.46-1.34v-.74a4,4,0,0,1-.58.48,3.91,3.91,0,0,1-.56.31,3.25,3.25,0,0,1-.61.17,3.73,3.73,0,0,1-.69,0,4,4,0,0,1-1.52-.28,3.5,3.5,0,0,1-2-2,4.64,4.64,0,0,1,0-3.23,4.58,4.58,0,0,1,.82-1.33,3.78,3.78,0,0,1,1.24-.88A3.67,3.67,0,0,1,62,72.09a3,3,0,0,1,2.3,1V72.3Zm-6.11,3.82a1.75,1.75,0,0,0,.14.7,1.7,1.7,0,0,0,.37.57,1.64,1.64,0,0,0,.55.38,1.92,1.92,0,0,0,1.39,0,1.79,1.79,0,0,0,.56-.38,1.87,1.87,0,0,0,.37-.57,1.75,1.75,0,0,0,0-1.37,1.79,1.79,0,0,0-.38-.56,1.73,1.73,0,0,0-.57-.38,1.7,1.7,0,0,0-.67-.13,1.67,1.67,0,0,0-.67.14,2,2,0,0,0-.56.38,1.64,1.64,0,0,0-.38.55A1.53,1.53,0,0,0,60.91,76.12Z"/><path class="cls-7" d="M71.51,76.62c0,1.18.55,1.76,1.65,1.76a1.48,1.48,0,0,0,1.34-.72h2.64q-.81,2.66-4,2.65a5.13,5.13,0,0,1-1.79-.3,4,4,0,0,1-1.4-.83,3.77,3.77,0,0,1-.89-1.29,4.39,4.39,0,0,1-.32-1.69,4.81,4.81,0,0,1,.3-1.74,3.6,3.6,0,0,1,.86-1.31,3.72,3.72,0,0,1,1.35-.84A5,5,0,0,1,73,72a4.89,4.89,0,0,1,1.76.29,3.66,3.66,0,0,1,1.33.85A3.89,3.89,0,0,1,77,74.52a5.43,5.43,0,0,1,.28,1.82v.28ZM74.7,75a1.65,1.65,0,0,0-.56-.92,1.74,1.74,0,0,0-2,0,1.48,1.48,0,0,0-.51.93Z"/><path class="cls-7" d="M78.79,72.3h2.73v1a3,3,0,0,1,1.12-.91A3.45,3.45,0,0,1,84,72.14a3.33,3.33,0,0,1,1.4.26,2.76,2.76,0,0,1,1,.75,2.13,2.13,0,0,1,.45.87,4.57,4.57,0,0,1,.12,1.1V80H84.21v-3.9a4.55,4.55,0,0,0-.08-.92,1.25,1.25,0,0,0-.3-.57,1,1,0,0,0-.4-.25,1.53,1.53,0,0,0-.49-.08,1.34,1.34,0,0,0-1.06.42,1.73,1.73,0,0,0-.36,1.18V80H78.79Z"/><rect class="cls-6" x="166.91" width="109.53" height="107.02"/><path class="cls-7" d="M208.77,38.08c.52,0,1-.08,1.53-.08,5,.12,9.1,2.21,9.1,9.43,0,5.73-3.45,9.54-8.58,9.54-4.93,0-8.22-3.57-8.22-8.94h6a2.24,2.24,0,0,0,2.21,2.57c1.24,0,2.08-1.05,2.08-3.17,0-4.93-6.73-4.21-9.78-3.69V28.5H218.2v5.94h-9.43Z"/><path class="cls-7" d="M240.54,37.64v9.67c0,5.81-3.57,9.66-8.9,9.66s-9-3.85-9-9.66V37.64c0-5.73,3.61-9.54,9-9.54S240.54,31.91,240.54,37.64Zm-6.42,9.83V37.72c0-2-1-3.24-2.48-3.24s-2.53,1.28-2.53,3.24v9.75c0,1.84,1,3.09,2.53,3.09S234.12,49.31,234.12,47.47Z"/><path class="cls-7" d="M200.89,74.29a3.17,3.17,0,0,0-1.47-.39,1.1,1.1,0,0,0-.61.15.44.44,0,0,0-.23.4.65.65,0,0,0,0,.22.38.38,0,0,0,.17.16,1.37,1.37,0,0,0,.37.14l.66.15a3.22,3.22,0,0,1,1.69.8,2.06,2.06,0,0,1,.55,1.48,2.67,2.67,0,0,1-.27,1.22,2.55,2.55,0,0,1-.75.91,3.61,3.61,0,0,1-1.16.58,5.37,5.37,0,0,1-1.49.2,6.12,6.12,0,0,1-3.09-.89l1-1.93a3.82,3.82,0,0,0,2.17.79,1,1,0,0,0,.61-.17.49.49,0,0,0,.24-.42.9.9,0,0,0,0-.25.52.52,0,0,0-.16-.18,1.62,1.62,0,0,0-.36-.15l-.61-.14a3.49,3.49,0,0,1-1.76-.76,1.87,1.87,0,0,1-.51-1.39,2.75,2.75,0,0,1,.24-1.17,2.37,2.37,0,0,1,.69-.88,3.36,3.36,0,0,1,1.1-.56,4.83,4.83,0,0,1,1.42-.19,6.45,6.45,0,0,1,2.48.49Z"/><path class="cls-7" d="M206.69,74.57V80H204V74.57h-.9V72.3h.9V70h2.73V72.3h1.55v2.27Z"/><path class="cls-7" d="M211.86,76.62c0,1.18.56,1.76,1.66,1.76a1.48,1.48,0,0,0,1.34-.72h2.63q-.8,2.66-4,2.65a5.17,5.17,0,0,1-1.79-.3,4,4,0,0,1-1.39-.83,3.77,3.77,0,0,1-.89-1.29,4.39,4.39,0,0,1-.32-1.69,4.81,4.81,0,0,1,.3-1.74,3.6,3.6,0,0,1,.86-1.31,3.72,3.72,0,0,1,1.35-.84A5,5,0,0,1,213.4,72a4.89,4.89,0,0,1,1.76.29,3.54,3.54,0,0,1,2.15,2.21,5.43,5.43,0,0,1,.29,1.82v.28ZM215.05,75a1.64,1.64,0,0,0-.55-.92,1.75,1.75,0,0,0-2.06,0,1.52,1.52,0,0,0-.5.93Z"/><path class="cls-7" d="M225.11,67.53h2.74V80h-2.74v-.86a2.85,2.85,0,0,1-2.37,1.1,3.8,3.8,0,0,1-1.55-.31,3.7,3.7,0,0,1-1.23-.88,4,4,0,0,1-.82-1.3,4.41,4.41,0,0,1-.29-1.63,4.54,4.54,0,0,1,.27-1.57,4,4,0,0,1,.79-1.3,3.77,3.77,0,0,1,1.23-.89,3.86,3.86,0,0,1,1.57-.32,3.17,3.17,0,0,1,2.4,1Zm-3.43,8.61a1.82,1.82,0,0,0,.13.7,1.66,1.66,0,0,0,.37.56,1.68,1.68,0,0,0,.56.38,1.78,1.78,0,0,0,.7.14,1.72,1.72,0,0,0,.68-.14,1.68,1.68,0,0,0,.56-.38,1.9,1.9,0,0,0,.37-.55,1.62,1.62,0,0,0,0-1.36,1.87,1.87,0,0,0-.37-.57,1.68,1.68,0,0,0-.56-.38,1.72,1.72,0,0,0-.68-.13,1.69,1.69,0,0,0-1.25.51,1.9,1.9,0,0,0-.37.55A1.52,1.52,0,0,0,221.68,76.14Z"/><path class="cls-7" d="M232.15,76.62c0,1.18.55,1.76,1.66,1.76a1.47,1.47,0,0,0,1.33-.72h2.64q-.79,2.66-4,2.65A5.13,5.13,0,0,1,232,80a3.87,3.87,0,0,1-1.39-.83,3.66,3.66,0,0,1-.9-1.29,4.39,4.39,0,0,1-.31-1.69,4.81,4.81,0,0,1,.3-1.74,3.58,3.58,0,0,1,.85-1.31,3.81,3.81,0,0,1,1.35-.84,5,5,0,0,1,1.79-.29,4.93,4.93,0,0,1,1.76.29,3.62,3.62,0,0,1,1.32.85,3.74,3.74,0,0,1,.83,1.36,5.43,5.43,0,0,1,.28,1.82v.28ZM235.34,75a1.65,1.65,0,0,0-.56-.92,1.55,1.55,0,0,0-1-.34,1.57,1.57,0,0,0-1,.33,1.42,1.42,0,0,0-.5.93Z"/><path class="cls-7" d="M239.43,72.3h2.73v1a3,3,0,0,1,1.13-.91,3.42,3.42,0,0,1,1.34-.23,3.29,3.29,0,0,1,1.39.26,2.76,2.76,0,0,1,1,.75,2.28,2.28,0,0,1,.46.87,4.57,4.57,0,0,1,.12,1.1V80h-2.73v-3.9a4.55,4.55,0,0,0-.08-.92,1.23,1.23,0,0,0-.29-.57,1,1,0,0,0-.41-.25,1.51,1.51,0,0,0-.48-.08,1.33,1.33,0,0,0-1.06.42,1.69,1.69,0,0,0-.37,1.18V80h-2.73Z"/><rect class="cls-6" x="326.47" width="109.53" height="107.02"/><path class="cls-7" d="M353.74,28.5V51.08h3.61v5.49H343.56V51.08h3.52v-17h-3V28.5Z"/><path class="cls-7" d="M366.1,38.08c.52,0,1-.08,1.52-.08,5,.12,9.1,2.21,9.1,9.43,0,5.73-3.45,9.54-8.58,9.54-4.93,0-8.22-3.57-8.22-8.94h6a2.24,2.24,0,0,0,2.2,2.57c1.24,0,2.09-1.05,2.09-3.17,0-4.93-6.74-4.21-9.79-3.69V28.5h15.08v5.94H366.1Z"/><path class="cls-7" d="M390.24,38.41c4.69-.37,7.9,3.16,7.9,9S394.37,57,388.76,57s-9.35-3.81-9.35-9.54a15.34,15.34,0,0,1,1.73-6.18l6.25-12.75H395Zm1,9c0-2.37-.76-3.53-2.52-3.53s-2.53,1.16-2.53,3.53c0,2,1,3.37,2.53,3.37S391.28,49.43,391.28,47.43Z"/><path class="cls-7" d="M411.42,38.41c4.69-.37,7.9,3.16,7.9,9S415.55,57,409.93,57s-9.34-3.81-9.34-9.54a15.49,15.49,0,0,1,1.72-6.18l6.26-12.75h7.58Zm1,9c0-2.37-.76-3.53-2.53-3.53s-2.52,1.16-2.52,3.53c0,2,1,3.37,2.52,3.37S412.46,49.43,412.46,47.43Z"/><path class="cls-7" d="M343.89,72.3h2.74V80h-2.74v-.86a2.84,2.84,0,0,1-2.36,1.1A3.77,3.77,0,0,1,340,80a3.65,3.65,0,0,1-1.23-.86,3.78,3.78,0,0,1-.82-1.31,4.39,4.39,0,0,1-.3-1.64,4.33,4.33,0,0,1,.29-1.57,3.84,3.84,0,0,1,.8-1.3,3.63,3.63,0,0,1,1.22-.89,3.78,3.78,0,0,1,1.56-.32,3.15,3.15,0,0,1,2.39,1Zm-3.43,3.84a1.82,1.82,0,0,0,.14.7,1.66,1.66,0,0,0,.37.56,1.64,1.64,0,0,0,.55.38,1.8,1.8,0,0,0,1.39,0,1.64,1.64,0,0,0,.55-.38,1.75,1.75,0,0,0,.38-.55,1.72,1.72,0,0,0,0-1.36,1.73,1.73,0,0,0-.38-.57,1.64,1.64,0,0,0-.55-.38,1.92,1.92,0,0,0-1.39,0,1.64,1.64,0,0,0-.55.38,1.72,1.72,0,0,0-.37.55A1.67,1.67,0,0,0,340.46,76.14Z"/><path class="cls-7" d="M354.31,74.8a2.53,2.53,0,0,0-1.43-.48,1.93,1.93,0,0,0-.73.13,1.73,1.73,0,0,0-.6.39,1.76,1.76,0,0,0-.4.59,2,2,0,0,0-.14.75,2,2,0,0,0,.14.75,1.87,1.87,0,0,0,.4.59,1.71,1.71,0,0,0,.59.38,2,2,0,0,0,.74.14,2.26,2.26,0,0,0,1.43-.53v2.32a4.81,4.81,0,0,1-1.91.43,4.54,4.54,0,0,1-1.61-.28,4.28,4.28,0,0,1-1.34-.82,4.23,4.23,0,0,1-.92-1.28,3.93,3.93,0,0,1-.35-1.67,4.11,4.11,0,0,1,.33-1.67,3.81,3.81,0,0,1,.91-1.31,4,4,0,0,1,1.36-.86,4.49,4.49,0,0,1,1.69-.31,4.08,4.08,0,0,1,1.84.42Z"/><path class="cls-7" d="M358.9,74.57V80h-2.73V74.57h-.9V72.3h.9V70h2.73V72.3h1.55v2.27Z"/><path class="cls-7" d="M361.5,69.34a1.53,1.53,0,0,1,.12-.6,1.54,1.54,0,0,1,.82-.82,1.54,1.54,0,0,1,1.19,0,1.51,1.51,0,0,1,.49.33,1.63,1.63,0,0,1,.33.49,1.53,1.53,0,0,1,.12.6,1.45,1.45,0,0,1-.12.59,1.54,1.54,0,0,1-.82.82,1.54,1.54,0,0,1-1.19,0,1.63,1.63,0,0,1-.49-.33,1.51,1.51,0,0,1-.33-.49A1.45,1.45,0,0,1,361.5,69.34Zm2.91,3V80h-2.73V72.3Z"/><path class="cls-7" d="M368.56,72.3l1.83,4,1.87-4h3l-4,7.72h-1.82l-4-7.72Z"/><path class="cls-7" d="M376.05,69.34a1.53,1.53,0,0,1,.12-.6,1.54,1.54,0,0,1,.82-.82,1.53,1.53,0,0,1,.6-.12,1.45,1.45,0,0,1,.59.12,1.51,1.51,0,0,1,.49.33,1.63,1.63,0,0,1,.33.49,1.53,1.53,0,0,1,.12.6,1.45,1.45,0,0,1-.12.59,1.54,1.54,0,0,1-.82.82,1.45,1.45,0,0,1-.59.12,1.53,1.53,0,0,1-.6-.12,1.63,1.63,0,0,1-.49-.33,1.51,1.51,0,0,1-.33-.49A1.45,1.45,0,0,1,376.05,69.34Zm2.91,3V80h-2.73V72.3Z"/><path class="cls-7" d="M383.86,74.57V80h-2.72V74.57h-.9V72.3h.9V70h2.72V72.3h1.55v2.27Z"/><path class="cls-7" d="M389,76.62c0,1.18.55,1.76,1.66,1.76a1.47,1.47,0,0,0,1.33-.72h2.64q-.8,2.66-4,2.65a5.13,5.13,0,0,1-1.79-.3,3.87,3.87,0,0,1-1.39-.83,3.66,3.66,0,0,1-.9-1.29,4.39,4.39,0,0,1-.31-1.69,4.81,4.81,0,0,1,.3-1.74,3.58,3.58,0,0,1,.85-1.31,3.81,3.81,0,0,1,1.35-.84,5,5,0,0,1,1.78-.29,4.94,4.94,0,0,1,1.77.29,3.62,3.62,0,0,1,1.32.85,3.74,3.74,0,0,1,.83,1.36,5.43,5.43,0,0,1,.28,1.82v.28ZM392.23,75a1.65,1.65,0,0,0-.56-.92,1.74,1.74,0,0,0-2.05,0,1.42,1.42,0,0,0-.5.93Z"/><path class="cls-7" d="M396.14,69.34a1.53,1.53,0,0,1,.12-.6,1.63,1.63,0,0,1,.33-.49,1.76,1.76,0,0,1,.49-.33,1.53,1.53,0,0,1,.6-.12,1.45,1.45,0,0,1,.59.12,1.51,1.51,0,0,1,.49.33,1.63,1.63,0,0,1,.33.49,1.53,1.53,0,0,1,.12.6,1.45,1.45,0,0,1-.12.59,1.54,1.54,0,0,1-.82.82,1.45,1.45,0,0,1-.59.12,1.53,1.53,0,0,1-.6-.12,1.76,1.76,0,0,1-.49-.33,1.51,1.51,0,0,1-.33-.49A1.45,1.45,0,0,1,396.14,69.34Zm2.91,3V80h-2.73V72.3Z"/><path class="cls-7" d="M404,74.57V80h-2.72V74.57h-.9V72.3h.9V70H404V72.3h1.55v2.27Z"/><path class="cls-7" d="M409.13,76.62c0,1.18.55,1.76,1.66,1.76a1.47,1.47,0,0,0,1.33-.72h2.64q-.79,2.66-4,2.65A5.13,5.13,0,0,1,409,80a3.87,3.87,0,0,1-1.39-.83,3.66,3.66,0,0,1-.9-1.29,4.39,4.39,0,0,1-.31-1.69,4.81,4.81,0,0,1,.3-1.74,3.58,3.58,0,0,1,.85-1.31,3.9,3.9,0,0,1,1.35-.84,5,5,0,0,1,1.79-.29,4.93,4.93,0,0,1,1.76.29,3.62,3.62,0,0,1,1.32.85,3.74,3.74,0,0,1,.83,1.36,5.43,5.43,0,0,1,.28,1.82v.28ZM412.32,75a1.65,1.65,0,0,0-.56-.92,1.55,1.55,0,0,0-1-.34,1.57,1.57,0,0,0-1,.33,1.47,1.47,0,0,0-.5.93Z"/><path class="cls-7" d="M416.41,72.3h2.73v1a3,3,0,0,1,1.13-.91,3.42,3.42,0,0,1,1.34-.23,3.29,3.29,0,0,1,1.39.26,2.76,2.76,0,0,1,1,.75,2.28,2.28,0,0,1,.46.87,4.57,4.57,0,0,1,.12,1.1V80h-2.73v-3.9a4.55,4.55,0,0,0-.08-.92,1.23,1.23,0,0,0-.29-.57,1,1,0,0,0-.41-.25,1.51,1.51,0,0,0-.48-.08,1.33,1.33,0,0,0-1.06.42,1.69,1.69,0,0,0-.37,1.18V80h-2.73Z"/></g></g></svg>