<svg xmlns="http://www.w3.org/2000/svg" xmlns:xlink="http://www.w3.org/1999/xlink" viewBox="0 0 248 77.93"><defs><style>.cls-1{fill:none;}.cls-2{fill:#e76d5d;}.cls-3{fill:url(#New_Pattern_Swatch_4);}.cls-4{fill:#f9f9f9;}.cls-5{fill:#e66e61;}</style><pattern id="New_Pattern_Swatch_4" data-name="New Pattern Swatch 4" width="120" height="120" patternTransform="translate(-45.43 139.99) rotate(45) scale(0.75)" patternUnits="userSpaceOnUse" viewBox="0 0 120 120"><rect class="cls-1" width="120" height="120"/><rect class="cls-2" y="2" width="120" height="4"/><rect class="cls-2" y="10" width="120" height="4"/><rect class="cls-2" y="18" width="120" height="4"/><rect class="cls-2" y="26" width="120" height="4"/><rect class="cls-2" y="34" width="120" height="4"/><rect class="cls-2" y="42" width="120" height="4"/><rect class="cls-2" y="50" width="120" height="4"/><rect class="cls-2" y="58" width="120" height="4"/><rect class="cls-2" y="66" width="120" height="4"/><rect class="cls-2" y="74" width="120" height="4"/><rect class="cls-2" y="82" width="120" height="4"/><rect class="cls-2" y="90" width="120" height="4"/><rect class="cls-2" y="98" width="120" height="4"/><rect class="cls-2" y="106" width="120" height="4"/><rect class="cls-2" y="114" width="120" height="4"/></pattern></defs><title>stats-small</title><g id="Layer_2" data-name="Layer 2"><g id="Layer_1-2" data-name="Layer 1"><rect class="cls-3" y="5" width="74.64" height="72.93"/><rect class="cls-3" x="84" y="5" width="74.64" height="72.93"/><rect class="cls-3" x="168" y="5" width="74.64" height="72.93"/><rect class="cls-4" x="5" width="74.64" height="72.93"/><path class="cls-5" d="M37.58,38.55l5-14.76h-6V19.42H48.75v.71L42.28,38.55Z"/><path class="cls-5" d="M29.47,46h1.87v8.51H29.47V54a1.94,1.94,0,0,1-1.61.74,2.64,2.64,0,0,1-1.06-.21,2.49,2.49,0,0,1-.84-.6A2.8,2.8,0,0,1,25.4,53a3.08,3.08,0,0,1-.2-1.11,3.21,3.21,0,0,1,.19-1.07,2.71,2.71,0,0,1,.54-.88,2.31,2.31,0,0,1,.84-.6,2.5,2.5,0,0,1,1.07-.22,2.14,2.14,0,0,1,1.63.68Zm-2.34,5.86a1.24,1.24,0,0,0,.09.48,1.3,1.3,0,0,0,.25.39,1.19,1.19,0,0,0,.38.25,1.18,1.18,0,0,0,.95,0,1.19,1.19,0,0,0,.38-.25,1.39,1.39,0,0,0,.25-.38,1.06,1.06,0,0,0,.1-.46,1.07,1.07,0,0,0-.1-.47,1.3,1.3,0,0,0-.25-.39,1.19,1.19,0,0,0-.38-.25,1.27,1.27,0,0,0-.94,0,1.19,1.19,0,0,0-.38.25,1.39,1.39,0,0,0-.25.38A1,1,0,0,0,27.13,51.88Z"/><path class="cls-5" d="M36.66,49.27h1.86v5.26H36.66V54a2,2,0,0,1-1.61.74A2.64,2.64,0,0,1,34,54.48a2.58,2.58,0,0,1-.84-.58,3,3,0,0,1-.56-.9,3.1,3.1,0,0,1-.2-1.12,3,3,0,0,1,.2-1.07,2.71,2.71,0,0,1,.54-.88,2.36,2.36,0,0,1,.83-.6A2.5,2.5,0,0,1,35,49.11a2.14,2.14,0,0,1,1.63.68Zm-2.34,2.61a1.24,1.24,0,0,0,.09.48,1.3,1.3,0,0,0,.25.39A1.19,1.19,0,0,0,35,53a1.18,1.18,0,0,0,1,0,1.19,1.19,0,0,0,.38-.25,1.39,1.39,0,0,0,.25-.38,1.06,1.06,0,0,0,.1-.46,1.07,1.07,0,0,0-.1-.47,1.3,1.3,0,0,0-.25-.39A1.19,1.19,0,0,0,36,50.8a1.27,1.27,0,0,0-.47-.09,1.28,1.28,0,0,0-.48.09,1.19,1.19,0,0,0-.38.25,1.39,1.39,0,0,0-.25.38A1.13,1.13,0,0,0,34.32,51.88Z"/><path class="cls-5" d="M45.67,49.27v4.9a4.7,4.7,0,0,1-.05.79,3.34,3.34,0,0,1-.14.62,1.93,1.93,0,0,1-.39.63,2.7,2.7,0,0,1-.63.51,3.27,3.27,0,0,1-.83.33,4,4,0,0,1-2.14,0,3.11,3.11,0,0,1-.9-.42A2.39,2.39,0,0,1,40,56a2.29,2.29,0,0,1-.33-.79h2.09a.84.84,0,0,0,.89.52,1.16,1.16,0,0,0,.89-.33,1.26,1.26,0,0,0,.32-.91V54a3.5,3.5,0,0,1-.4.32,3.59,3.59,0,0,1-.38.21,2.77,2.77,0,0,1-.41.12,3.53,3.53,0,0,1-.48,0,2.66,2.66,0,0,1-1-.19,2.44,2.44,0,0,1-.82-.54,2.61,2.61,0,0,1-.53-.84A2.92,2.92,0,0,1,39.58,52a3,3,0,0,1,.21-1.13,2.94,2.94,0,0,1,.55-.9,2.57,2.57,0,0,1,.85-.6,2.45,2.45,0,0,1,1.06-.22,2.06,2.06,0,0,1,1.57.69v-.55Zm-4.16,2.6a1.24,1.24,0,0,0,.09.48,1.3,1.3,0,0,0,.25.39,1.09,1.09,0,0,0,.38.25,1.28,1.28,0,0,0,.48.09,1.27,1.27,0,0,0,.47-.09,1.05,1.05,0,0,0,.37-.25,1.16,1.16,0,0,0,.26-.39,1.15,1.15,0,0,0,0-.94,1.22,1.22,0,0,0-.26-.38,1.19,1.19,0,0,0-.38-.25,1.22,1.22,0,0,0-.46-.09,1.14,1.14,0,0,0-.46.09,1.28,1.28,0,0,0-.38.26,1.18,1.18,0,0,0-.26.37A1.06,1.06,0,0,0,41.51,51.87Z"/><path class="cls-5" d="M48.73,52.21c0,.8.37,1.2,1.13,1.2a1,1,0,0,0,.91-.49h1.79a2.51,2.51,0,0,1-2.71,1.81,3.59,3.59,0,0,1-1.22-.2,2.9,2.9,0,0,1-1-.57,2.4,2.4,0,0,1-.61-.89,2.79,2.79,0,0,1-.22-1.14,3.19,3.19,0,0,1,.21-1.19,2.49,2.49,0,0,1,.58-.9,2.76,2.76,0,0,1,.92-.57,3.53,3.53,0,0,1,1.21-.2,3.43,3.43,0,0,1,1.2.2,2.58,2.58,0,0,1,.91.58,2.72,2.72,0,0,1,.56.93,3.71,3.71,0,0,1,.2,1.24v.19Zm2.17-1.07a1.14,1.14,0,0,0-.38-.63,1,1,0,0,0-.69-.24,1.08,1.08,0,0,0-.71.23,1,1,0,0,0-.34.64Z"/><path class="cls-5" d="M53.69,49.27h1.86v.67a1.93,1.93,0,0,1,.77-.62,2.31,2.31,0,0,1,.91-.16,2.27,2.27,0,0,1,1,.18,2,2,0,0,1,.67.5,1.56,1.56,0,0,1,.31.6,3.38,3.38,0,0,1,.08.75v3.34H57.38V51.87a3.48,3.48,0,0,0-.05-.63.86.86,0,0,0-.2-.38.75.75,0,0,0-.28-.17.88.88,0,0,0-.33-.06.92.92,0,0,0-.72.29,1.13,1.13,0,0,0-.25.8v2.81H53.69Z"/><rect class="cls-4" x="89.18" width="74.64" height="72.93"/><path class="cls-5" d="M117.71,26c.36,0,.71-.05,1-.05,3.39.08,6.2,1.5,6.2,6.42,0,3.91-2.35,6.5-5.84,6.5s-5.61-2.43-5.61-6.09h4.1a1.53,1.53,0,0,0,1.51,1.75c.84,0,1.42-.71,1.42-2.16,0-3.36-4.59-2.87-6.67-2.51V19.42h10.27v4h-6.42Z"/><path class="cls-5" d="M139.36,25.65v6.59c0,4-2.43,6.58-6.07,6.58s-6.12-2.62-6.12-6.58V25.65c0-3.91,2.46-6.5,6.12-6.5S139.36,21.74,139.36,25.65ZM135,32.35V25.71c0-1.34-.69-2.22-1.7-2.22s-1.72.88-1.72,2.22v6.64c0,1.25.68,2.1,1.72,2.1S135,33.6,135,32.35Z"/><path class="cls-5" d="M112.34,50.62a2.22,2.22,0,0,0-1-.26.77.77,0,0,0-.42.1.33.33,0,0,0-.16.28.26.26,0,0,0,0,.14.23.23,0,0,0,.11.11.71.71,0,0,0,.26.09l.44.11a2,2,0,0,1,1.15.55,1.36,1.36,0,0,1,.38,1,1.9,1.9,0,0,1-.18.83,2,2,0,0,1-.51.62,2.65,2.65,0,0,1-.79.39,3.64,3.64,0,0,1-1,.14,4.16,4.16,0,0,1-2.1-.61l.67-1.31a2.7,2.7,0,0,0,1.48.53.77.77,0,0,0,.42-.11.35.35,0,0,0,.17-.29.43.43,0,0,0,0-.17.3.3,0,0,0-.11-.12.69.69,0,0,0-.24-.1,3.53,3.53,0,0,0-.41-.1,2.4,2.4,0,0,1-1.21-.52,1.27,1.27,0,0,1-.34-1,1.83,1.83,0,0,1,.16-.79,1.63,1.63,0,0,1,.47-.6,2.21,2.21,0,0,1,.75-.38,3.24,3.24,0,0,1,1-.14,4.51,4.51,0,0,1,1.69.34Z"/><path class="cls-5" d="M116.29,50.82v3.71h-1.86V50.82h-.61V49.27h.61V47.69h1.86v1.58h1.06v1.55Z"/><path class="cls-5" d="M119.82,52.21c0,.8.37,1.2,1.13,1.2a1,1,0,0,0,.91-.49h1.79a2.5,2.5,0,0,1-2.71,1.81,3.63,3.63,0,0,1-1.22-.2,2.9,2.9,0,0,1-1-.57,2.4,2.4,0,0,1-.61-.89,2.79,2.79,0,0,1-.22-1.14,3.19,3.19,0,0,1,.21-1.19,2.49,2.49,0,0,1,.58-.9,2.76,2.76,0,0,1,.92-.57,3.53,3.53,0,0,1,1.21-.2,3.43,3.43,0,0,1,1.2.2,2.58,2.58,0,0,1,.91.58,2.72,2.72,0,0,1,.56.93,3.71,3.71,0,0,1,.2,1.24v.19ZM122,51.14a1.14,1.14,0,0,0-.38-.63,1,1,0,0,0-.69-.24,1.08,1.08,0,0,0-.71.23,1,1,0,0,0-.34.64Z"/><path class="cls-5" d="M128.84,46h1.87v8.51h-1.87V54a1.93,1.93,0,0,1-1.61.74,2.59,2.59,0,0,1-1-.21,2.31,2.31,0,0,1-.84-.6,2.64,2.64,0,0,1-.56-.89,2.88,2.88,0,0,1-.2-1.11,3,3,0,0,1,.19-1.07,2.53,2.53,0,0,1,.53-.88,2.49,2.49,0,0,1,.84-.6,2.53,2.53,0,0,1,1.07-.22,2.12,2.12,0,0,1,1.63.68Zm-2.34,5.86a1.25,1.25,0,0,0,.1.48,1.14,1.14,0,0,0,.25.39,1,1,0,0,0,.38.25,1.2,1.2,0,0,0,.47.1,1.24,1.24,0,0,0,.47-.1,1.09,1.09,0,0,0,.38-.25,1.42,1.42,0,0,0,.26-.38,1.22,1.22,0,0,0,.09-.46,1.23,1.23,0,0,0-.09-.47,1.33,1.33,0,0,0-.26-.39,1.09,1.09,0,0,0-.38-.25,1.23,1.23,0,0,0-.47-.09,1.18,1.18,0,0,0-.46.09,1,1,0,0,0-.38.25,1.42,1.42,0,0,0-.26.38A1.14,1.14,0,0,0,126.5,51.88Z"/><path class="cls-5" d="M133.64,52.21c0,.8.38,1.2,1.13,1.2a1,1,0,0,0,.91-.49h1.8a2.52,2.52,0,0,1-2.72,1.81,3.67,3.67,0,0,1-1.22-.2,2.9,2.9,0,0,1-.95-.57,2.52,2.52,0,0,1-.61-.89,3,3,0,0,1-.21-1.14,3.2,3.2,0,0,1,.2-1.19,2.52,2.52,0,0,1,.59-.9,2.71,2.71,0,0,1,.91-.57,3.59,3.59,0,0,1,1.22-.2,3.51,3.51,0,0,1,1.2.2,2.63,2.63,0,0,1,.9.58,2.44,2.44,0,0,1,.56.93,3.71,3.71,0,0,1,.2,1.24v.19Zm2.18-1.07a1.2,1.2,0,0,0-.38-.63,1.16,1.16,0,0,0-1.4,0,1,1,0,0,0-.35.64Z"/><path class="cls-5" d="M138.61,49.27h1.85v.67a2,2,0,0,1,.77-.62,2.35,2.35,0,0,1,.91-.16,2.27,2.27,0,0,1,1,.18,1.87,1.87,0,0,1,.67.5,1.44,1.44,0,0,1,.31.6,2.88,2.88,0,0,1,.08.75v3.34H142.3V51.87a2.68,2.68,0,0,0-.06-.63.77.77,0,0,0-.2-.38.62.62,0,0,0-.28-.17.87.87,0,0,0-.32-.06.93.93,0,0,0-.73.29,1.18,1.18,0,0,0-.25.8v2.81h-1.85Z"/><rect class="cls-4" x="173.36" width="74.64" height="72.93"/><path class="cls-5" d="M192,19.42V34.81h2.46v3.74H185V34.81h2.41V23.25h-2.08V19.42Z"/><path class="cls-5" d="M200.36,26c.36,0,.71-.05,1-.05,3.39.08,6.21,1.5,6.21,6.42,0,3.91-2.35,6.5-5.85,6.5s-5.6-2.43-5.6-6.09h4.09a1.53,1.53,0,0,0,1.51,1.75c.84,0,1.42-.71,1.42-2.16,0-3.36-4.59-2.87-6.67-2.51V19.42h10.28v4h-6.43Z"/><path class="cls-5" d="M216.82,26.17c3.19-.24,5.38,2.16,5.38,6.15a6.09,6.09,0,0,1-6.39,6.5c-3.83,0-6.37-2.59-6.37-6.5a10.63,10.63,0,0,1,1.17-4.21l4.27-8.69H220Zm.71,6.15c0-1.61-.52-2.4-1.72-2.4s-1.73.79-1.73,2.4c0,1.37.69,2.3,1.73,2.3S217.53,33.69,217.53,32.32Z"/><path class="cls-5" d="M231.25,26.17c3.2-.24,5.38,2.16,5.38,6.15a6.09,6.09,0,0,1-6.39,6.5c-3.83,0-6.37-2.59-6.37-6.5A10.63,10.63,0,0,1,225,28.11l4.27-8.69h5.16Zm.71,6.15c0-1.61-.52-2.4-1.72-2.4s-1.72.79-1.72,2.4c0,1.37.68,2.3,1.72,2.3S232,33.69,232,32.32Z"/><path class="cls-5" d="M185.23,49.27h1.87v5.26h-1.87V54a1.93,1.93,0,0,1-1.61.74,2.59,2.59,0,0,1-1.89-.79,2.79,2.79,0,0,1-.56-.9,3.1,3.1,0,0,1-.2-1.12,3,3,0,0,1,.19-1.07,2.57,2.57,0,0,1,.55-.88,2.36,2.36,0,0,1,.83-.6,2.45,2.45,0,0,1,1.06-.22,2.12,2.12,0,0,1,1.63.68Zm-2.33,2.61a1.24,1.24,0,0,0,.09.48,1.14,1.14,0,0,0,.25.39,1.09,1.09,0,0,0,.38.25,1.29,1.29,0,0,0,.48.1,1.19,1.19,0,0,0,.46-.1,1,1,0,0,0,.38-.25,1.42,1.42,0,0,0,.26-.38,1.13,1.13,0,0,0,0-.93,1.33,1.33,0,0,0-.26-.39,1,1,0,0,0-.38-.25,1.18,1.18,0,0,0-.46-.09,1.28,1.28,0,0,0-.48.09,1.09,1.09,0,0,0-.38.25,1.19,1.19,0,0,0-.25.38A1.13,1.13,0,0,0,182.9,51.88Z"/><path class="cls-5" d="M192.33,51a1.69,1.69,0,0,0-1-.33,1.18,1.18,0,0,0-.5.1,1.19,1.19,0,0,0-.41.26,1.28,1.28,0,0,0-.27.4,1.38,1.38,0,0,0-.09.52,1.35,1.35,0,0,0,.09.5,1.28,1.28,0,0,0,.27.4,1.07,1.07,0,0,0,.4.26,1.25,1.25,0,0,0,.51.1,1.52,1.52,0,0,0,1-.36V54.4a3.23,3.23,0,0,1-1.3.29,3,3,0,0,1-1.09-.19,2.88,2.88,0,0,1-.92-.56,2.63,2.63,0,0,1-.86-2,2.88,2.88,0,0,1,.22-1.15,2.79,2.79,0,0,1,.62-.89,2.76,2.76,0,0,1,.93-.58,3.13,3.13,0,0,1,1.15-.21,2.76,2.76,0,0,1,1.25.28Z"/><path class="cls-5" d="M195.46,50.82v3.71H193.6V50.82H193V49.27h.61V47.69h1.86v1.58h1.06v1.55Z"/><path class="cls-5" d="M197.23,47.25a1.15,1.15,0,0,1,.08-.41,1.23,1.23,0,0,1,.23-.33,1.19,1.19,0,0,1,.33-.22,1,1,0,0,1,.41-.09.9.9,0,0,1,.4.09,1.11,1.11,0,0,1,.34.22,1.19,1.19,0,0,1,.22.33,1,1,0,0,1,.09.41.9.9,0,0,1-.09.4,1,1,0,0,1-.56.56.9.9,0,0,1-.4.09,1,1,0,0,1-.41-.09,1.19,1.19,0,0,1-.33-.22,1.13,1.13,0,0,1-.23-.34A1.06,1.06,0,0,1,197.23,47.25Zm2,2v5.26h-1.85V49.27Z"/><path class="cls-5" d="M202,49.27l1.25,2.7,1.27-2.7h2.08l-2.74,5.26h-1.24L200,49.27Z"/><path class="cls-5" d="M207.15,47.25a1.15,1.15,0,0,1,.08-.41,1.23,1.23,0,0,1,.23-.33,1,1,0,0,1,.33-.22,1,1,0,0,1,.41-.09.93.93,0,0,1,.4.09,1,1,0,0,1,.33.22,1.23,1.23,0,0,1,.23.33,1.15,1.15,0,0,1,.08.41,1.06,1.06,0,0,1-.08.4,1.13,1.13,0,0,1-.23.34,1,1,0,0,1-.33.22.93.93,0,0,1-.4.09,1,1,0,0,1-.41-.09,1,1,0,0,1-.33-.22,1.13,1.13,0,0,1-.23-.34A1.06,1.06,0,0,1,207.15,47.25Zm2,2v5.26h-1.86V49.27Z"/><path class="cls-5" d="M212.47,50.82v3.71h-1.85V50.82H210V49.27h.62V47.69h1.85v1.58h1.06v1.55Z"/><path class="cls-5" d="M216,52.21c0,.8.38,1.2,1.13,1.2a1,1,0,0,0,.91-.49h1.79a2.5,2.5,0,0,1-2.71,1.81,3.63,3.63,0,0,1-1.22-.2,2.9,2.9,0,0,1-1-.57,2.52,2.52,0,0,1-.61-.89,2.79,2.79,0,0,1-.22-1.14,3.19,3.19,0,0,1,.21-1.19,2.49,2.49,0,0,1,.58-.9,2.86,2.86,0,0,1,.92-.57,3.76,3.76,0,0,1,2.42,0,2.63,2.63,0,0,1,.9.58,2.72,2.72,0,0,1,.56.93,3.71,3.71,0,0,1,.2,1.24v.19Zm2.17-1.07a1.08,1.08,0,0,0-.38-.63,1,1,0,0,0-.69-.24,1.1,1.1,0,0,0-.71.23,1,1,0,0,0-.34.64Z"/><path class="cls-5" d="M220.84,47.25a1.15,1.15,0,0,1,.08-.41,1.23,1.23,0,0,1,.23-.33,1,1,0,0,1,.33-.22,1,1,0,0,1,.41-.09.93.93,0,0,1,.4.09,1,1,0,0,1,.33.22,1.23,1.23,0,0,1,.23.33,1.15,1.15,0,0,1,.08.41,1.06,1.06,0,0,1-.08.4,1.13,1.13,0,0,1-.23.34,1,1,0,0,1-.33.22.93.93,0,0,1-.4.09,1,1,0,0,1-.41-.09,1,1,0,0,1-.33-.22,1.13,1.13,0,0,1-.23-.34A1.06,1.06,0,0,1,220.84,47.25Zm2,2v5.26H221V49.27Z"/><path class="cls-5" d="M226.16,50.82v3.71h-1.85V50.82h-.62V49.27h.62V47.69h1.85v1.58h1.06v1.55Z"/><path class="cls-5" d="M229.69,52.21c0,.8.38,1.2,1.13,1.2a1,1,0,0,0,.91-.49h1.8a2.52,2.52,0,0,1-2.72,1.81,3.63,3.63,0,0,1-1.22-.2,2.9,2.9,0,0,1-1-.57,2.52,2.52,0,0,1-.61-.89,2.79,2.79,0,0,1-.22-1.14,3.19,3.19,0,0,1,.21-1.19,2.49,2.49,0,0,1,.58-.9,2.86,2.86,0,0,1,.92-.57,3.76,3.76,0,0,1,2.42,0,2.63,2.63,0,0,1,.9.58,2.72,2.72,0,0,1,.56.93,3.71,3.71,0,0,1,.2,1.24v.19Zm2.17-1.07a1.08,1.08,0,0,0-.38-.63,1,1,0,0,0-.69-.24,1.1,1.1,0,0,0-.71.23,1,1,0,0,0-.34.64Z"/><path class="cls-5" d="M234.65,49.27h1.86v.67a1.93,1.93,0,0,1,.77-.62,2.31,2.31,0,0,1,.91-.16,2.27,2.27,0,0,1,.95.18,2,2,0,0,1,.67.5,1.56,1.56,0,0,1,.31.6,3.38,3.38,0,0,1,.08.75v3.34h-1.85V51.87a2.68,2.68,0,0,0-.06-.63.86.86,0,0,0-.2-.38.68.68,0,0,0-.28-.17.88.88,0,0,0-.33-.06.92.92,0,0,0-.72.29,1.13,1.13,0,0,0-.25.8v2.81h-1.86Z"/></g></g></svg>