<svg xmlns="http://www.w3.org/2000/svg" xmlns:xlink="http://www.w3.org/1999/xlink" viewBox="0 0 257 242"><defs><style>.cls-1{fill:none;}.cls-2{fill:#e76d5d;}.cls-3{fill:url(#New_Pattern_Swatch_4);}.cls-4{fill:#f9f9f9;}.cls-5{fill:#e66e61;}</style><pattern id="New_Pattern_Swatch_4" data-name="New Pattern Swatch 4" width="120" height="120" patternTransform="translate(-45.43 139.99) rotate(45) scale(0.75)" patternUnits="userSpaceOnUse" viewBox="0 0 120 120"><rect class="cls-1" width="120" height="120"/><rect class="cls-2" y="2" width="120" height="4"/><rect class="cls-2" y="10" width="120" height="4"/><rect class="cls-2" y="18" width="120" height="4"/><rect class="cls-2" y="26" width="120" height="4"/><rect class="cls-2" y="34" width="120" height="4"/><rect class="cls-2" y="42" width="120" height="4"/><rect class="cls-2" y="50" width="120" height="4"/><rect class="cls-2" y="58" width="120" height="4"/><rect class="cls-2" y="66" width="120" height="4"/><rect class="cls-2" y="74" width="120" height="4"/><rect class="cls-2" y="82" width="120" height="4"/><rect class="cls-2" y="90" width="120" height="4"/><rect class="cls-2" y="98" width="120" height="4"/><rect class="cls-2" y="106" width="120" height="4"/><rect class="cls-2" y="114" width="120" height="4"/></pattern></defs><title>stats-big</title><g id="Layer_2" data-name="Layer 2"><g id="Layer_1-2" data-name="Layer 1"><rect class="cls-3" x="154" y="114" width="103" height="103"/><rect class="cls-3" x="45" y="7" width="92" height="92"/><rect class="cls-3" x="8" y="114" width="131" height="128"/><rect class="cls-4" x="146" y="106" width="103" height="103"/><rect class="cls-4" x="38" width="92" height="92"/><rect class="cls-4" y="106" width="131" height="128"/><path class="cls-5" d="M75.68,48.66l8.73-25.9H73.81V15.08H95.3v1.25L83.93,48.66Z"/><path class="cls-5" d="M32.62,140.08v27h4.31v6.57H20.43v-6.57h4.22V146.8H21v-6.72Z"/><path class="cls-5" d="M47.39,151.55c.62-.05,1.25-.1,1.82-.1,5.95.15,10.89,2.64,10.89,11.28,0,6.86-4.12,11.41-10.26,11.41-5.9,0-9.84-4.27-9.84-10.69h7.2c-.05,1.82,1,3.07,2.64,3.07,1.48,0,2.49-1.25,2.49-3.79,0-5.91-8.06-5-11.7-4.42V140.08h18v7.1H47.39Z"/><path class="cls-5" d="M76.27,151.93c5.61-.43,9.45,3.79,9.45,10.8s-4.51,11.41-11.23,11.41-11.17-4.55-11.17-11.41a18.41,18.41,0,0,1,2.06-7.39l7.48-15.26h9.07Zm1.25,10.8c0-2.83-.91-4.23-3-4.23s-3,1.4-3,4.23c0,2.39,1.2,4,3,4S77.52,165.12,77.52,162.73Z"/><path class="cls-5" d="M101.6,151.93c5.61-.43,9.45,3.79,9.45,10.8s-4.51,11.41-11.23,11.41-11.17-4.55-11.17-11.41a18.41,18.41,0,0,1,2.06-7.39l7.48-15.26h9.07Zm1.25,10.8c0-2.83-.92-4.23-3-4.23s-3,1.4-3,4.23c0,2.39,1.2,4,3,4S102.85,165.12,102.85,162.73Z"/><path class="cls-5" d="M182.08,139.55c.62-.05,1.25-.1,1.82-.1,5.95.15,10.89,2.64,10.89,11.28,0,6.86-4.12,11.41-10.27,11.41-5.9,0-9.83-4.27-9.83-10.69h7.2c0,1.82,1,3.07,2.63,3.07s2.5-1.25,2.5-3.79c0-5.91-8.06-5-11.71-4.42V128.08h18v7.1H182.08Z"/><path class="cls-5" d="M220.07,139v11.56c0,7-4.27,11.56-10.65,11.56s-10.74-4.6-10.74-11.56V139c0-6.86,4.31-11.42,10.74-11.42S220.07,132.16,220.07,139Zm-7.67,11.75V139.12c0-2.35-1.2-3.89-3-3.89s-3,1.54-3,3.89v11.65c0,2.21,1.2,3.7,3,3.7S212.4,153,212.4,150.77Z"/><path class="cls-5" d="M61.45,60.77h3.27V75.71H61.45v-1A3.44,3.44,0,0,1,58.62,76a4.5,4.5,0,0,1-1.85-.38,4.56,4.56,0,0,1-1.48-1,4.79,4.79,0,0,1-1-1.57,5.54,5.54,0,0,1,0-3.82,4.57,4.57,0,0,1,1-1.56,4.3,4.3,0,0,1,1.46-1,4.49,4.49,0,0,1,1.88-.39,3.75,3.75,0,0,1,2.87,1.21Zm-4.11,10.3a2.23,2.23,0,0,0,.16.83,2.12,2.12,0,0,0,.45.68,1.93,1.93,0,0,0,.66.45,2.13,2.13,0,0,0,.84.16,2.07,2.07,0,0,0,.82-.16,1.93,1.93,0,0,0,.66-.45,2.08,2.08,0,0,0,.45-.67,1.84,1.84,0,0,0,.17-.81,2,2,0,0,0-.17-.82,2.19,2.19,0,0,0-.45-.67,1.93,1.93,0,0,0-.66-.45,2.11,2.11,0,0,0-2.31.45,2.57,2.57,0,0,0-.45.66A1.91,1.91,0,0,0,57.34,71.07Z"/><path class="cls-5" d="M74.06,66.48h3.28v9.23H74.06v-1A3.41,3.41,0,0,1,71.24,76a4.48,4.48,0,0,1-3.33-1.4,4.79,4.79,0,0,1-1-1.57,5.21,5.21,0,0,1-.35-2,5.14,5.14,0,0,1,.34-1.88,4.74,4.74,0,0,1,1-1.56,4.5,4.5,0,0,1,1.46-1,4.41,4.41,0,0,1,1.87-.39,3.73,3.73,0,0,1,2.86,1.21ZM70,71.07a2,2,0,0,0,.16.83,2.28,2.28,0,0,0,.44.68,2.08,2.08,0,0,0,.67.45,2.13,2.13,0,0,0,.84.16,2.1,2.1,0,0,0,.82-.16,2,2,0,0,0,.66-.45,2.08,2.08,0,0,0,.45-.67,1.84,1.84,0,0,0,.17-.81,2,2,0,0,0-.17-.82,2.19,2.19,0,0,0-.45-.67,2,2,0,0,0-.66-.45,2.1,2.1,0,0,0-.82-.16,2.13,2.13,0,0,0-.84.16,2.08,2.08,0,0,0-.67.45,2.31,2.31,0,0,0-.44.66A1.91,1.91,0,0,0,70,71.07Z"/><path class="cls-5" d="M89.89,66.48v8.6a9.64,9.64,0,0,1-.09,1.39,5.71,5.71,0,0,1-.26,1.08,3.43,3.43,0,0,1-.67,1.1,4.7,4.7,0,0,1-1.11.9,5.72,5.72,0,0,1-1.47.59,7,7,0,0,1-1.77.22,6.87,6.87,0,0,1-2-.27A5.31,5.31,0,0,1,81,79.34a4.37,4.37,0,0,1-1.11-1.12,3.71,3.71,0,0,1-.58-1.39H83a1.45,1.45,0,0,0,1.54.92,2.1,2.1,0,0,0,1.58-.58,2.25,2.25,0,0,0,.55-1.6v-.88a5.53,5.53,0,0,1-.7.56,3.41,3.41,0,0,1-.67.37,3,3,0,0,1-.72.21,5.31,5.31,0,0,1-.83.06,4.72,4.72,0,0,1-1.82-.34,4.42,4.42,0,0,1-1.43-1,4.29,4.29,0,0,1-.93-1.47,5,5,0,0,1-.34-1.9,5.27,5.27,0,0,1,.36-2,5.13,5.13,0,0,1,1-1.59A4.61,4.61,0,0,1,82,66.61a4.42,4.42,0,0,1,1.86-.38,3.59,3.59,0,0,1,2.76,1.22v-1Zm-7.31,4.57a2.13,2.13,0,0,0,.16.84,2.16,2.16,0,0,0,.44.67,2.08,2.08,0,0,0,.67.45,2.21,2.21,0,0,0,1.65,0,2.08,2.08,0,0,0,.67-.45,2.62,2.62,0,0,0,.45-.67,2.08,2.08,0,0,0,.17-.82,2.05,2.05,0,0,0-.17-.83,2.58,2.58,0,0,0-.46-.67,2.12,2.12,0,0,0-.68-.45,2.15,2.15,0,0,0-.8-.16,2.06,2.06,0,0,0-.81.17,2.57,2.57,0,0,0-.66.45,2.18,2.18,0,0,0-.46.66A1.84,1.84,0,0,0,82.58,71.05Z"/><path class="cls-5" d="M95.25,71.64c0,1.41.66,2.11,2,2.11a1.77,1.77,0,0,0,1.6-.86H102q-1,3.17-4.77,3.16a6.12,6.12,0,0,1-2.14-.35,4.68,4.68,0,0,1-1.67-1,4.4,4.4,0,0,1-1.07-1.54,5.23,5.23,0,0,1-.37-2,5.71,5.71,0,0,1,.36-2.08,4.23,4.23,0,0,1,1-1.57,4.43,4.43,0,0,1,1.61-1,6,6,0,0,1,2.13-.35,5.8,5.8,0,0,1,2.11.35,4.29,4.29,0,0,1,1.59,1,4.55,4.55,0,0,1,1,1.63,6.68,6.68,0,0,1,.34,2.17v.34Zm3.82-1.89a1.93,1.93,0,0,0-.67-1.09,2.05,2.05,0,0,0-2.46,0,1.74,1.74,0,0,0-.6,1.11Z"/><path class="cls-5" d="M104,66.48h3.26v1.17a3.46,3.46,0,0,1,1.35-1.09,4.16,4.16,0,0,1,1.6-.28,4,4,0,0,1,1.67.31,3.35,3.35,0,0,1,1.18.9,2.66,2.66,0,0,1,.54,1,5.72,5.72,0,0,1,.14,1.31v5.87h-3.26V71.05a4.77,4.77,0,0,0-.1-1.11,1.31,1.31,0,0,0-.35-.67,1.14,1.14,0,0,0-.48-.31,1.85,1.85,0,0,0-.58-.09,1.63,1.63,0,0,0-1.27.5,2.07,2.07,0,0,0-.44,1.41v4.93H104Z"/><path class="cls-5" d="M20.83,192.48h3.28v9.23H20.83v-1A3.41,3.41,0,0,1,18,202a4.48,4.48,0,0,1-3.33-1.4,4.79,4.79,0,0,1-1-1.57,5.21,5.21,0,0,1-.35-2,5.14,5.14,0,0,1,.34-1.88,4.74,4.74,0,0,1,1-1.56,4.5,4.5,0,0,1,1.46-1,4.41,4.41,0,0,1,1.87-.39,3.73,3.73,0,0,1,2.86,1.21Zm-4.1,4.59a2.23,2.23,0,0,0,.16.83,2.28,2.28,0,0,0,.44.68A2.08,2.08,0,0,0,18,199a2.13,2.13,0,0,0,.84.16,2.1,2.1,0,0,0,.82-.16,2.15,2.15,0,0,0,.66-.45,2.08,2.08,0,0,0,.45-.67,2,2,0,0,0,.17-.81,2.11,2.11,0,0,0-.17-.82,2.19,2.19,0,0,0-.45-.67,2.15,2.15,0,0,0-.66-.45,2.1,2.1,0,0,0-.82-.16,2.13,2.13,0,0,0-.84.16,2.08,2.08,0,0,0-.67.45,2.31,2.31,0,0,0-.44.66A2.08,2.08,0,0,0,16.73,197.07Z"/><path class="cls-5" d="M33.29,195.47a3,3,0,0,0-1.71-.58,2.28,2.28,0,0,0-.87.16,2.12,2.12,0,0,0-.71.46,2,2,0,0,0-.48.7,2.42,2.42,0,0,0-.17.91,2.31,2.31,0,0,0,.17.89,2,2,0,0,0,.47.7,1.9,1.9,0,0,0,.71.46,2.34,2.34,0,0,0,.88.17,2.7,2.7,0,0,0,1.71-.63v2.77A5.73,5.73,0,0,1,31,202a5.3,5.3,0,0,1-1.91-.34,4.93,4.93,0,0,1-1.6-1,4.7,4.7,0,0,1-1.11-1.53,4.64,4.64,0,0,1-.42-2,5.08,5.08,0,0,1,.4-2,4.68,4.68,0,0,1,1.08-1.57,5,5,0,0,1,1.63-1,5.45,5.45,0,0,1,2-.37,4.9,4.9,0,0,1,2.2.5Z"/><path class="cls-5" d="M38.78,195.2v6.51H35.52V195.2H34.44v-2.72h1.08v-2.77h3.26v2.77h1.85v2.72Z"/><path class="cls-5" d="M41.89,188.93a1.71,1.71,0,0,1,.15-.71,1.8,1.8,0,0,1,.39-.58,2,2,0,0,1,.59-.4,1.87,1.87,0,0,1,1.42,0,2,2,0,0,1,.59.4,1.8,1.8,0,0,1,.39.58,1.76,1.76,0,0,1,0,1.42,2,2,0,0,1-.39.59,1.79,1.79,0,0,1-.59.39,1.76,1.76,0,0,1-1.42,0,1.79,1.79,0,0,1-.59-.39,2,2,0,0,1-.39-.59A1.71,1.71,0,0,1,41.89,188.93Zm3.48,3.55v9.23H42.11v-9.23Z"/><path class="cls-5" d="M50.34,192.48l2.19,4.73,2.23-4.73H58.4l-4.81,9.23H51.42l-4.76-9.23Z"/><path class="cls-5" d="M59.3,188.93a1.87,1.87,0,0,1,.14-.71,1.82,1.82,0,0,1,.4-.58,1.94,1.94,0,0,1,.58-.4,1.9,1.9,0,0,1,1.43,0,1.94,1.94,0,0,1,.58.4,1.82,1.82,0,0,1,.4.58,1.87,1.87,0,0,1,0,1.42,2,2,0,0,1-.4.59,1.83,1.83,0,0,1-2.59,0,2,2,0,0,1-.4-.59A1.87,1.87,0,0,1,59.3,188.93Zm3.47,3.55v9.23H59.52v-9.23Z"/><path class="cls-5" d="M68.64,195.2v6.51H65.38V195.2H64.3v-2.72h1.08v-2.77h3.26v2.77H70.5v2.72Z"/><path class="cls-5" d="M74.83,197.64c0,1.41.66,2.11,2,2.11a1.77,1.77,0,0,0,1.6-.86h3.15q-.94,3.17-4.77,3.16a6.12,6.12,0,0,1-2.14-.35,4.55,4.55,0,0,1-1.66-1,4.4,4.4,0,0,1-1.07-1.54,5.05,5.05,0,0,1-.38-2,5.71,5.71,0,0,1,.36-2.08,4.36,4.36,0,0,1,1-1.57,4.47,4.47,0,0,1,1.62-1,6,6,0,0,1,2.13-.35,5.88,5.88,0,0,1,2.11.35,4.25,4.25,0,0,1,1.58,1,4.55,4.55,0,0,1,1,1.63,6.42,6.42,0,0,1,.34,2.17v.34Zm3.82-1.89a1.93,1.93,0,0,0-.67-1.09,1.83,1.83,0,0,0-1.22-.42,1.74,1.74,0,0,0-1.84,1.51Z"/><path class="cls-5" d="M83.33,188.93a1.87,1.87,0,0,1,.14-.71,1.82,1.82,0,0,1,.4-.58,1.94,1.94,0,0,1,.58-.4,1.9,1.9,0,0,1,1.43,0,1.94,1.94,0,0,1,.58.4,1.82,1.82,0,0,1,.4.58,1.87,1.87,0,0,1,0,1.42,2,2,0,0,1-.4.59,1.83,1.83,0,0,1-2.59,0,2,2,0,0,1-.4-.59A1.87,1.87,0,0,1,83.33,188.93Zm3.47,3.55v9.23H83.54v-9.23Z"/><path class="cls-5" d="M92.67,195.2v6.51H89.41V195.2H88.33v-2.72h1.08v-2.77h3.26v2.77h1.86v2.72Z"/><path class="cls-5" d="M98.86,197.64c0,1.41.66,2.11,2,2.11a1.77,1.77,0,0,0,1.6-.86h3.15q-.95,3.17-4.77,3.16a6.12,6.12,0,0,1-2.14-.35,4.55,4.55,0,0,1-1.66-1A4.27,4.27,0,0,1,96,199.16a5.05,5.05,0,0,1-.38-2,5.71,5.71,0,0,1,.36-2.08,4.36,4.36,0,0,1,1-1.57,4.52,4.52,0,0,1,1.61-1,6,6,0,0,1,2.14-.35,5.78,5.78,0,0,1,2.1.35,4.21,4.21,0,0,1,1.59,1,4.55,4.55,0,0,1,1,1.63,6.42,6.42,0,0,1,.34,2.17v.34Zm3.82-1.89a1.93,1.93,0,0,0-.67-1.09,1.83,1.83,0,0,0-1.22-.42A1.72,1.72,0,0,0,99,195.75Z"/><path class="cls-5" d="M107.57,192.48h3.26v1.17a3.53,3.53,0,0,1,1.35-1.09,4.16,4.16,0,0,1,1.6-.28,4,4,0,0,1,1.67.31,3.35,3.35,0,0,1,1.18.9,2.66,2.66,0,0,1,.54,1,5.72,5.72,0,0,1,.14,1.31v5.87h-3.26v-4.66a5.5,5.5,0,0,0-.09-1.11,1.4,1.4,0,0,0-.36-.67,1.14,1.14,0,0,0-.48-.31,1.81,1.81,0,0,0-.58-.09,1.63,1.63,0,0,0-1.27.5,2.07,2.07,0,0,0-.44,1.41v4.93h-3.26Z"/><path class="cls-5" d="M172.65,179.85a3.82,3.82,0,0,0-1.76-.46,1.32,1.32,0,0,0-.73.18.54.54,0,0,0-.28.48.62.62,0,0,0,0,.26.53.53,0,0,0,.2.19,1.54,1.54,0,0,0,.45.16l.79.18a3.66,3.66,0,0,1,2,1,2.42,2.42,0,0,1,.67,1.77,3.17,3.17,0,0,1-.33,1.46,3,3,0,0,1-.9,1.09,4.24,4.24,0,0,1-1.38.68,6.28,6.28,0,0,1-1.78.24A7.21,7.21,0,0,1,166,186l1.18-2.3a4.69,4.69,0,0,0,2.6.93,1.26,1.26,0,0,0,.73-.19.59.59,0,0,0,.29-.51.87.87,0,0,0,0-.3.53.53,0,0,0-.19-.21,1.39,1.39,0,0,0-.42-.18,7.42,7.42,0,0,0-.73-.17,4.25,4.25,0,0,1-2.12-.91,2.26,2.26,0,0,1-.6-1.67,3.15,3.15,0,0,1,.29-1.39,2.73,2.73,0,0,1,.82-1.05,4,4,0,0,1,1.31-.67,5.68,5.68,0,0,1,1.7-.23,7.64,7.64,0,0,1,3,.59Z"/><path class="cls-5" d="M179.58,180.2v6.51h-3.26V180.2h-1.08v-2.72h1.08v-2.77h3.26v2.77h1.86v2.72Z"/><path class="cls-5" d="M185.77,182.64c0,1.41.66,2.11,2,2.11a1.79,1.79,0,0,0,1.61-.86h3.15q-1,3.17-4.77,3.16a6.18,6.18,0,0,1-2.15-.35,4.64,4.64,0,0,1-1.66-1,4.4,4.4,0,0,1-1.07-1.54,5.23,5.23,0,0,1-.38-2,5.71,5.71,0,0,1,.36-2.08,4.25,4.25,0,0,1,1-1.57,4.35,4.35,0,0,1,1.61-1,6,6,0,0,1,2.13-.35,5.88,5.88,0,0,1,2.11.35,4.25,4.25,0,0,1,1.58,1,4.55,4.55,0,0,1,1,1.63,6.42,6.42,0,0,1,.34,2.17v.34Zm3.82-1.89a1.93,1.93,0,0,0-.67-1.09,2,2,0,0,0-2.45,0,1.79,1.79,0,0,0-.61,1.11Z"/><path class="cls-5" d="M201.61,171.77h3.28v14.94h-3.28v-1a3.41,3.41,0,0,1-2.82,1.31,4.5,4.5,0,0,1-3.33-1.42,4.79,4.79,0,0,1-1-1.57,5.19,5.19,0,0,1-.36-1.94,5.36,5.36,0,0,1,.34-1.88,4.71,4.71,0,0,1,.94-1.56,4.44,4.44,0,0,1,1.47-1,4.49,4.49,0,0,1,1.88-.39,3.73,3.73,0,0,1,2.86,1.21Zm-4.1,10.3a2,2,0,0,0,.16.83,2.28,2.28,0,0,0,.44.68,2.08,2.08,0,0,0,.67.45,2.13,2.13,0,0,0,.84.16,2,2,0,0,0,.81-.16,2.09,2.09,0,0,0,1.12-1.12,2,2,0,0,0,.17-.81,2.11,2.11,0,0,0-.17-.82,2.19,2.19,0,0,0-.45-.67,2.08,2.08,0,0,0-.67-.45,2.16,2.16,0,0,0-1.63,0,2.08,2.08,0,0,0-.67.45,2.15,2.15,0,0,0-.45.66A1.91,1.91,0,0,0,197.51,182.07Z"/><path class="cls-5" d="M210,182.64c0,1.41.66,2.11,2,2.11a1.77,1.77,0,0,0,1.6-.86h3.15q-1,3.17-4.77,3.16a6.08,6.08,0,0,1-2.14-.35,4.6,4.6,0,0,1-1.67-1,4.4,4.4,0,0,1-1.07-1.54,5.23,5.23,0,0,1-.38-2,5.71,5.71,0,0,1,.36-2.08,4.38,4.38,0,0,1,2.64-2.57,6,6,0,0,1,2.13-.35,5.84,5.84,0,0,1,2.11.35,4.18,4.18,0,0,1,2.57,2.64,6.41,6.41,0,0,1,.35,2.17v.34Zm3.81-1.89a1.92,1.92,0,0,0-.66-1.09,1.87,1.87,0,0,0-1.23-.42,1.84,1.84,0,0,0-1.23.4,1.74,1.74,0,0,0-.6,1.11Z"/><path class="cls-5" d="M218.75,177.48H222v1.17a3.46,3.46,0,0,1,1.35-1.09,4.12,4.12,0,0,1,1.6-.28,4,4,0,0,1,1.66.31,3.18,3.18,0,0,1,1.18.9,2.42,2.42,0,0,1,.54,1,5.19,5.19,0,0,1,.15,1.31v5.87h-3.26v-4.66a4.77,4.77,0,0,0-.1-1.11,1.39,1.39,0,0,0-.35-.67,1.23,1.23,0,0,0-.49-.31,1.79,1.79,0,0,0-.57-.09,1.61,1.61,0,0,0-1.27.5,2,2,0,0,0-.44,1.41v4.93h-3.26Z"/></g></g></svg>