<svg xmlns="http://www.w3.org/2000/svg" viewBox="0 0 32.71 32.71"><defs><style>.cls-1{fill:#f9f9f9;}.cls-2{fill:#e6b6b1;}</style></defs><title>twitter</title><g id="Layer_2" data-name="Layer 2"><g id="Layer_1-2" data-name="Layer 1"><circle class="cls-1" cx="16.36" cy="16.36" r="16.36"/><path class="cls-2" d="M8.38,23a8,8,0,0,0,1,.07,6.86,6.86,0,0,0,4.45-1.64h0a3.59,3.59,0,0,1-3.4-2.5c.21,0,.42,0,.63,0a4.45,4.45,0,0,0,1.16-.15A3.57,3.57,0,0,1,9,15.33s0-.07,0-.1a4.64,4.64,0,0,0,1.67.45A3.63,3.63,0,0,1,9.3,14,3.76,3.76,0,0,1,9,12.66a3.48,3.48,0,0,1,.58-1.93A11.13,11.13,0,0,0,11,12.14a10.71,10.71,0,0,0,3.49,1.92,8.51,8.51,0,0,0,1,.28l.16,0,.3.06h0a8.51,8.51,0,0,0,1.13.14,3.82,3.82,0,0,1-.11-.9,3.59,3.59,0,0,1,.09-.81,3.67,3.67,0,0,1,2-2.52,3.78,3.78,0,0,1,.56-.21h0a3.42,3.42,0,0,1,1-.13,3.65,3.65,0,0,1,2.71,1.2,4.94,4.94,0,0,0,2.27-.86,3.36,3.36,0,0,1-1.45,1.93v.05l.39,0a5.07,5.07,0,0,0,1.66-.59,5.81,5.81,0,0,1-1.88,2c0,.19,0,.39,0,.58A10.43,10.43,0,0,1,8.38,23Z"/></g></g></svg>